<svg xmlns="http://www.w3.org/2000/svg" xmlns:xlink="http://www.w3.org/1999/xlink" width="134.5" height="58.69" viewBox="0 0 134.5 58.69">
  <metadata><?xpacket begin="﻿" id="W5M0MpCehiHzreSzNTczkc9d"?>
<x:xmpmeta xmlns:x="adobe:ns:meta/" x:xmptk="Adobe XMP Core 5.6-c138 79.159824, 2016/09/14-01:09:01        ">
   <rdf:RDF xmlns:rdf="http://www.w3.org/1999/02/22-rdf-syntax-ns#">
      <rdf:Description rdf:about=""/>
   </rdf:RDF>
</x:xmpmeta>
                                                                                                    
                                                                                                    
                                                                                                    
                                                                                                    
                                                                                                    
                                                                                                    
                                                                                                    
                                                                                                    
                                                                                                    
                                                                                                    
                                                                                                    
                                                                                                    
                                                                                                    
                                                                                                    
                                                                                                    
                                                                                                    
                                                                                                    
                                                                                                    
                                                                                                    
                                                                                                    
                           
<?xpacket end="w"?></metadata>
<defs>
    <style>
      .cls-1 {
        fill: #fff;
        fill-rule: evenodd;
        filter: url(#filter);
      }
    </style>
    <filter id="filter" x="572.469" y="3039.78" width="134.5" height="58.69" filterUnits="userSpaceOnUse">
      <feFlood result="flood" flood-color="#1967bf"/>
      <feComposite result="composite" operator="in" in2="SourceGraphic"/>
      <feBlend result="blend" in2="SourceGraphic"/>
    </filter>
  </defs>
  <path id="_" data-name="{" class="cls-1" d="M698.572,3094.85a16.5,16.5,0,0,1,.581-3.71l5.639,0.96,2.186-28.23-7.669,5.79q-4.011-4.53-8.685-9.85a23.224,23.224,0,0,0-10.446-7.13l-25.254,19.07q5.545,0.72,12.3,6.86t9.088,9.51l-7.527,6.27,29.3,4.09A18.766,18.766,0,0,0,698.572,3094.85Zm-23.66-2.07,5.985-4.81a46.067,46.067,0,0,0-9.6-10.63,42.6,42.6,0,0,0-10.714-6.85l13.234-9.99A59.214,59.214,0,0,1,684,3068.93a131.284,131.284,0,0,1,8.919,9.96l6.267-4.73L696,3095.72Zm-3.224-38.02-3.193-1.7,6.594-4.98a105.784,105.784,0,0,0-10.167-4.33c-3.727-1.37-6.563-1.78-8.506-1.25l-26.642,21.22q5.442,1.17,10.767,2.88t10.757,3.55Zm-21.619,11.92a87.978,87.978,0,0,0-14.392-4.19l15.465-12.48a75.612,75.612,0,0,1,7.672,2.43,34.853,34.853,0,0,1,6.22,2.94Zm-3.986-19.39-4.6-.64,8.23-6.5q-21.591-1.77-39.391,4.51t-37.871,22.09a164.487,164.487,0,0,1,26.636-6.04,60.025,60.025,0,0,1,26.275,2.22l9.4-7.09Zm-21.151,11.86a100.785,100.785,0,0,0-16.705-1.85,68.512,68.512,0,0,0-20.419,2.27q10.7-7.125,25.986-9.63t25.166-1.97Z" transform="translate(-572.469 -3039.78)"/>
</svg>
