<svg xmlns="http://www.w3.org/2000/svg" xmlns:xlink="http://www.w3.org/1999/xlink" width="88.937" height="34.54" viewBox="0 0 88.937 34.54">
  <metadata><?xpacket begin="﻿" id="W5M0MpCehiHzreSzNTczkc9d"?>
<x:xmpmeta xmlns:x="adobe:ns:meta/" x:xmptk="Adobe XMP Core 5.6-c138 79.159824, 2016/09/14-01:09:01        ">
   <rdf:RDF xmlns:rdf="http://www.w3.org/1999/02/22-rdf-syntax-ns#">
      <rdf:Description rdf:about=""/>
   </rdf:RDF>
</x:xmpmeta>
                                                                                                    
                                                                                                    
                                                                                                    
                                                                                                    
                                                                                                    
                                                                                                    
                                                                                                    
                                                                                                    
                                                                                                    
                                                                                                    
                                                                                                    
                                                                                                    
                                                                                                    
                                                                                                    
                                                                                                    
                                                                                                    
                                                                                                    
                                                                                                    
                                                                                                    
                                                                                                    
                           
<?xpacket end="w"?></metadata>
<defs>
    <style>
      .cls-1 {
        fill: #e8ebf6;
        fill-rule: evenodd;
        filter: url(#filter);
      }
    </style>
    <filter id="filter" x="622.688" y="3391.59" width="88.937" height="34.54" filterUnits="userSpaceOnUse">
      <feFlood result="flood" flood-color="#1967bf"/>
      <feComposite result="composite" operator="in" in2="SourceGraphic"/>
      <feBlend result="blend" in2="SourceGraphic"/>
    </filter>
  </defs>
  <path id="_" data-name="{" class="cls-1" d="M708.292,3401.2a10.838,10.838,0,0,0-.436,2.46l3.762,0.62-4.736,18.27-3.581-5.32c-2.341,1.33-4.878,2.78-7.61,4.33a15.381,15.381,0,0,1-8.131,2.24l-11.792-17.49q3.656,0.735,9.244-1.67a43.14,43.14,0,0,0,7.79-4.02l-3.388-5.59,19.359,3.77A12.813,12.813,0,0,1,708.292,3401.2Zm-15.366-3.82,2.731,4.33a30.9,30.9,0,0,1-8.356,4.62,28.5,28.5,0,0,1-8.24,2l6.18,9.16a39.661,39.661,0,0,0,8.245-3.11,85.84,85.84,0,0,0,7.783-4.35l2.927,4.34,2.666-14.28Zm-10.268,23.27-2.382.38,3.079,4.56a67.508,67.508,0,0,1-7.348.53q-3.969.09-5.634-1.05l-12.2-19.15q3.687,0.435,7.414.52t7.552,0.09Zm-11.05-12.2a58.5,58.5,0,0,1-9.981-.48l7.047,11.22a50.139,50.139,0,0,0,5.364.13,23.682,23.682,0,0,0,4.558-.5Zm-6.712,11.36-3.036-.59,3.779,5.88a62.885,62.885,0,0,1-23.857-11.38q-9.861-7.815-19.092-22.13a109.091,109.091,0,0,0,15.484,9.58,40,40,0,0,0,17.048,4.29l4.39,6.51Zm-10.767-12.06a67.735,67.735,0,0,1-10.934-2.45,45.7,45.7,0,0,1-12.381-5.85,43.73,43.73,0,0,0,14.3,11.7,80.456,80.456,0,0,0,15.441,6.69Z" transform="translate(-622.688 -3391.59)"/>
</svg>
