<svg xmlns="http://www.w3.org/2000/svg" xmlns:xlink="http://www.w3.org/1999/xlink" width="157.25" height="91.71" viewBox="0 0 157.25 91.71">
  <metadata><?xpacket begin="﻿" id="W5M0MpCehiHzreSzNTczkc9d"?>
<x:xmpmeta xmlns:x="adobe:ns:meta/" x:xmptk="Adobe XMP Core 5.6-c138 79.159824, 2016/09/14-01:09:01        ">
   <rdf:RDF xmlns:rdf="http://www.w3.org/1999/02/22-rdf-syntax-ns#">
      <rdf:Description rdf:about=""/>
   </rdf:RDF>
</x:xmpmeta>
                                                                                                    
                                                                                                    
                                                                                                    
                                                                                                    
                                                                                                    
                                                                                                    
                                                                                                    
                                                                                                    
                                                                                                    
                                                                                                    
                                                                                                    
                                                                                                    
                                                                                                    
                                                                                                    
                                                                                                    
                                                                                                    
                                                                                                    
                                                                                                    
                                                                                                    
                                                                                                    
                           
<?xpacket end="w"?></metadata>
<defs>
    <style>
      .cls-1 {
        fill: #e8ebf6;
        fill-rule: evenodd;
        filter: url(#filter);
      }
    </style>
    <filter id="filter" x="538.344" y="3585.88" width="157.25" height="91.71" filterUnits="userSpaceOnUse">
      <feFlood result="flood" flood-color="#1967bf"/>
      <feComposite result="composite" operator="in" in2="SourceGraphic"/>
      <feBlend result="blend" in2="SourceGraphic"/>
    </filter>
  </defs>
  <path id="_" data-name="{" class="cls-1" d="M690.805,3639.15a20.365,20.365,0,0,0-1.825,4.31l6.62,2.71-16.279,31.42-4.331-11.21q-7.248,2.175-15.717,4.75a28.887,28.887,0,0,1-15.793.68l-14.262-36.89q6.374,2.88,17.591.82t15.921-4.11l-3.864-11.62,33.817,14.96A23.9,23.9,0,0,1,690.805,3639.15Zm-26.5-13.4,3.187,9.06a57.678,57.678,0,0,1-17.2,4.96,53.057,53.057,0,0,1-15.9.22l7.474,19.33a74.664,74.664,0,0,0,16.369-2.24,163.257,163.257,0,0,0,16.043-4.71l3.539,9.15,10.832-25Zm-28.477,38.26-4.512-.3,3.724,9.64a130.27,130.27,0,0,1-13.652-2.11q-7.293-1.5-9.859-4.27l-14.32-40.09q6.556,2.34,13.337,4.03t13.767,3.32Zm-15.112-26.9a110.854,110.854,0,0,1-18.045-5.04l8.2,23.45a96.78,96.78,0,0,0,9.75,2.47,42.859,42.859,0,0,0,8.545.98Zm-17.006,17.96-5.3-2.35,4.454,12.34Q578.767,3652.7,564,3634.3t-25.669-48.42a205.4,205.4,0,0,0,24.307,23.98,75.24,75.24,0,0,0,29.376,14.95l5.308,13.73Zm-14.654-26.53a127.237,127.237,0,0,1-18.965-9.04,85.455,85.455,0,0,1-20.191-15.87q6.67,14.625,21.255,27.35,14.583,12.75,25.436,18.68Z" transform="translate(-538.344 -3585.88)"/>
</svg>
