<svg xmlns="http://www.w3.org/2000/svg" xmlns:xlink="http://www.w3.org/1999/xlink" width="109.625" height="60.94" viewBox="0 0 109.625 60.94">
  <metadata><?xpacket begin="﻿" id="W5M0MpCehiHzreSzNTczkc9d"?>
<x:xmpmeta xmlns:x="adobe:ns:meta/" x:xmptk="Adobe XMP Core 5.6-c138 79.159824, 2016/09/14-01:09:01        ">
   <rdf:RDF xmlns:rdf="http://www.w3.org/1999/02/22-rdf-syntax-ns#">
      <rdf:Description rdf:about=""/>
   </rdf:RDF>
</x:xmpmeta>
                                                                                                    
                                                                                                    
                                                                                                    
                                                                                                    
                                                                                                    
                                                                                                    
                                                                                                    
                                                                                                    
                                                                                                    
                                                                                                    
                                                                                                    
                                                                                                    
                                                                                                    
                                                                                                    
                                                                                                    
                                                                                                    
                                                                                                    
                                                                                                    
                                                                                                    
                                                                                                    
                           
<?xpacket end="w"?></metadata>
<defs>
    <style>
      .cls-1 {
        fill: #e8ebf6;
        fill-rule: evenodd;
        filter: url(#filter);
      }
    </style>
    <filter id="filter" x="581.406" y="3214" width="109.625" height="60.94" filterUnits="userSpaceOnUse">
      <feFlood result="flood" flood-color="#1967bf"/>
      <feComposite result="composite" operator="in" in2="SourceGraphic"/>
      <feBlend result="blend" in2="SourceGraphic"/>
    </filter>
  </defs>
  <path id="_" data-name="{" class="cls-1" d="M594.2,3272.07a13.526,13.526,0,0,0-1.184-2.89l-4.389,1.86-7.206-22.47,7.333,3.22q2.378-4.455,5.145-9.66a19.321,19.321,0,0,1,7.1-7.79l24.145,10.59q-4.355,1.665-8.653,7.94a53.356,53.356,0,0,0-5.537,9.46l7.31,3.63-22.967,8.96A15.541,15.541,0,0,1,594.2,3272.07Zm18.785-6.24-5.779-2.74a38.33,38.33,0,0,1,5.739-10.47,35.617,35.617,0,0,1,7.368-7.62l-12.654-5.55a50.035,50.035,0,0,0-6.632,8.79,110.156,110.156,0,0,0-5.312,9.8l-5.992-2.62,6.729,16.86Zm-4.706-31.44,2.261-1.99-6.3-2.77a84.588,84.588,0,0,1,7.41-5.47q4.137-2.745,6.656-2.65l25.684,12.07q-4.185,2.01-8.174,4.41-3.99,2.415-8.038,4.95Zm19.823,5.5a73.125,73.125,0,0,1,10.863-6.17l-14.942-7.14a63.816,63.816,0,0,0-5.752,3.45,28.708,28.708,0,0,0-4.478,3.58Zm-0.5-16.48,3.6-1.41-7.925-3.69q17.167-5.58,32.807-3.92t34.959,10.62a136.776,136.776,0,0,0-22.761.22,50.071,50.071,0,0,0-20.874,6.87l-8.987-3.95Zm19.431,5.53a84.956,84.956,0,0,1,13.188-4.71,56.87,56.87,0,0,1,16.992-2.09q-10.047-3.72-22.923-2.81a100.7,100.7,0,0,0-20.782,3.25Z" transform="translate(-581.406 -3214)"/>
</svg>
