<svg xmlns="http://www.w3.org/2000/svg" xmlns:xlink="http://www.w3.org/1999/xlink" width="104.875" height="61.15" viewBox="0 0 104.875 61.15">
  <metadata><?xpacket begin="﻿" id="W5M0MpCehiHzreSzNTczkc9d"?>
<x:xmpmeta xmlns:x="adobe:ns:meta/" x:xmptk="Adobe XMP Core 5.6-c138 79.159824, 2016/09/14-01:09:01        ">
   <rdf:RDF xmlns:rdf="http://www.w3.org/1999/02/22-rdf-syntax-ns#">
      <rdf:Description rdf:about=""/>
   </rdf:RDF>
</x:xmpmeta>
                                                                                                    
                                                                                                    
                                                                                                    
                                                                                                    
                                                                                                    
                                                                                                    
                                                                                                    
                                                                                                    
                                                                                                    
                                                                                                    
                                                                                                    
                                                                                                    
                                                                                                    
                                                                                                    
                                                                                                    
                                                                                                    
                                                                                                    
                                                                                                    
                                                                                                    
                                                                                                    
                           
<?xpacket end="w"?></metadata>
<defs>
    <style>
      .cls-1 {
        fill: #e8ebf6;
        fill-rule: evenodd;
        filter: url(#filter);
      }
    </style>
    <filter id="filter" x="614" y="3472.94" width="104.875" height="61.15" filterUnits="userSpaceOnUse">
      <feFlood result="flood" flood-color="#1967bf"/>
      <feComposite result="composite" operator="in" in2="SourceGraphic"/>
      <feBlend result="blend" in2="SourceGraphic"/>
    </filter>
  </defs>
  <path id="_копия_2" data-name="{ копия 2" class="cls-1" d="M617.21,3508.46a13.676,13.676,0,0,1,1.216,2.88l-4.413,1.8,10.852,20.95,2.888-7.47q4.832,1.455,10.478,3.16a19.264,19.264,0,0,0,10.529.46l9.507-24.59q-4.248,1.92-11.727.54a53.463,53.463,0,0,1-10.614-2.74l2.576-7.75-22.544,9.97A15.7,15.7,0,0,0,617.21,3508.46Zm17.664-8.93-2.124,6.04a38.446,38.446,0,0,0,11.468,3.31,35.456,35.456,0,0,0,10.6.14l-4.983,12.89a50.172,50.172,0,0,1-10.913-1.49,107.065,107.065,0,0,1-10.695-3.15l-2.359,6.11-7.221-16.67Zm18.985,25.51,3.008-.2-2.483,6.42a85.056,85.056,0,0,0,9.1-1.4q4.861-1.005,6.573-2.85l9.546-26.73q-4.371,1.56-8.891,2.69c-3.014.76-6.074,1.49-9.178,2.21Zm10.075-17.94a73.238,73.238,0,0,0,12.03-3.36l-5.468,15.64a66.436,66.436,0,0,1-6.5,1.65,29.29,29.29,0,0,1-5.7.65Zm11.337,11.98,3.537-1.57-2.97,8.23q16.064-8.25,25.909-20.51t17.113-32.28a137.433,137.433,0,0,1-16.205,15.99,50.145,50.145,0,0,1-19.584,9.96l-3.539,9.16Zm9.77-17.69a83.629,83.629,0,0,0,12.643-6.03,57.053,57.053,0,0,0,13.46-10.58,54.5,54.5,0,0,1-14.17,18.24,100.5,100.5,0,0,1-16.957,12.45Z" transform="translate(-614 -3472.94)"/>
</svg>
